<svg xmlns="http://www.w3.org/2000/svg" xmlns:xlink="http://www.w3.org/1999/xlink" viewBox="0 0 800 800"><defs><style>.cls-1{fill:none;}.cls-2{clip-path:url(#clip-path);}.cls-3{fill:#3d5aa8;}.cls-4{fill:#8ea8d7;}</style><clipPath id="clip-path"><rect class="cls-1" width="800" height="800"/></clipPath></defs><title>music-pattern</title><g class="cls-2"><rect class="cls-3" width="800" height="800"/><path class="cls-1" d="M4.54,397.55l1.34-.25c-.07-5.87.3-11.79-.33-17.61A30.74,30.74,0,0,0,0,364.85v28.28Q2.22,395.38,4.54,397.55Z"/><path class="cls-1" d="M0,403.43v20.62a98.69,98.69,0,0,1,2.29-11.63C3.32,408.48,2.84,406.08,0,403.43Z"/><path class="cls-1" d="M789.4,355.81c-2.07-1.36-4.57-3.07-6.54-1.17-1.32,1.27-1.78,4.16-1.55,6.2,1.56,13.92,9.38,24.08,18.69,33.3v-27.8A34.91,34.91,0,0,0,789.4,355.81Z"/><path class="cls-1" d="M800,418.1V404.47a13.85,13.85,0,0,0-1.77-1.71A118.34,118.34,0,0,1,766.31,361,38.14,38.14,0,0,1,763,348.39c-.83-9.87,6.76-15.62,15.74-11.6a65.57,65.57,0,0,1,15.49,10.29,74.3,74.3,0,0,1,5.81,5.54V0H747.06q-1,3.1-2,6.23c-3.93,12.34-17,14-25.4,9.57-6.88-3.57-9.75-9.4-8.25-15.8H455.61a20.25,20.25,0,0,1-3,4.07,24.71,24.71,0,0,1-12.87,7.39,18.35,18.35,0,0,1-13-1.32A11.43,11.43,0,0,1,420.46,0H257.87a20.27,20.27,0,0,1-11.6,7.8A15.78,15.78,0,0,1,229,.71c-.15-.24-.28-.47-.42-.71H74.23c1,4.1-.35,7.81-2.71,11.14a21.2,21.2,0,0,1-15.68,9.35C51.2,21,47,19.82,44.23,15.63a10.57,10.57,0,0,1-1-9.34A19.45,19.45,0,0,1,46.57,0H0V351.61a92.14,92.14,0,0,1,15.36,21.28c5.89,11,6,23,5.17,35a7.85,7.85,0,0,0,3,7.34c4.5,3.8,8.8,7.84,13.25,11.85a67.85,67.85,0,0,1,4.66-5.05c8.35-7.49,18-7.95,28.1-4.67,21.52,7,29.32,28,18,47.93-.8,1.42-1.7,2.79-2.74,4.47,2.07,1.94,4.26,3.74,6.14,5.82a91.12,91.12,0,0,1,8.63,10.34c7.42,11.16,6.15,22.13-3.75,31.79a31.52,31.52,0,0,1-9.63,6.63c-7.8,3.22-17.43-2.17-19.34-10.42-1.13-4.9.84-8.92,4.59-11.93s8.25-4,13-1.94c4.44,2,6.94,4.9,8.77,10.18a14.62,14.62,0,0,0,2.17-13.16c-1.77-6.44-9.17-17-15.09-21.39-5.18,5.82-11,10.88-18.26,14.08C41.15,499,15.56,488.64,5.85,466.87A76.06,76.06,0,0,1,0,446.77V800H46.57a21.17,21.17,0,0,1,16.75-8.06h1.26c-.43-1.38-.82-2.65-1.23-3.9-2.53-7.61-5.08-15.22-7.59-22.83-2.24-6.8-4.41-13.62-6.67-20.42-2.55-7.71-5.17-15.41-7.75-23.11-.36-1-.72-2.11-1.05-3.17a3.23,3.23,0,0,1,1.12-3.68,3.33,3.33,0,0,1,3.78-.15c6.69,4.58,14.15,7.7,21.38,11.27a36.64,36.64,0,0,1,11.77,8.5,33.37,33.37,0,0,1,5.82,10.84A32.49,32.49,0,0,1,85.91,761a27.42,27.42,0,0,1-1.5,5.09,1.27,1.27,0,0,1-1.07.64,1.42,1.42,0,0,1-.75-1.06c-.13-2-.08-3.95-.23-5.92a38.11,38.11,0,0,0-4-15.09,20.16,20.16,0,0,0-8.57-8.24,32.27,32.27,0,0,0-17.16-4,2.12,2.12,0,0,0-.44,0,1,1,0,0,0-.27.14c.78,2.37,1.55,4.76,2.34,7.14L62.67,765q4.41,13.26,8.83,26.52c.9,2.71,1.93,5.39,2.65,8.15l.08.32H228.56c-3.73-6.28-4.29-13.06-2.67-20.12a27.44,27.44,0,0,1,7-13.25c1.56-1.61,3.41-3,5.23-4.49-.88-.63-1.82-1.32-2.79-2l-10.43-7.1-13.85-9.38L197,734.08c-6-4.09-12.07-8.16-18.1-12.27-4.24-2.88-8.48-5.78-12.68-8.72-1.61-1.13-2-3.62-1.14-5.58q4.68-10.43,9.31-20.86,4.92-11,9.85-22.06,5.69-12.72,11.35-25.43c2.44-5.46,4.84-10.93,7.33-16.37a4.72,4.72,0,0,1,7.19-1.75q8.58,5.84,17.15,11.67c6.09,4.15,12.15,8.32,18.24,12.45s12,8.12,18,12.19q7.56,5.14,15.1,10.32c4.27,2.92,8.45,6,12.82,8.72,8.69,5.48,11.47,13.6,10.58,23.31a27.93,27.93,0,0,1-7,16.45c-4.49,5-9.93,8.09-16.93,7.14-5.1-.7-8.86-3.61-11.47-7.89-4.31-7.07-4.54-14.64-2.2-22.4a27.12,27.12,0,0,1,8-12.76c1.11-1,2.36-1.79,3.73-2.82L248,658.27l-35.22,75.2,10.28,7c4.51,3.08,9,6.18,13.54,9.25,6.49,4.41,13,8.73,19.47,13.23a18.38,18.38,0,0,1,7,10.23,28.92,28.92,0,0,1-4.23,25.51c-.3.44-.62.87-.95,1.29H420.46a12.11,12.11,0,0,1,.54-3.68c2-6.29,6.37-10.36,12.15-13.09a22,22,0,0,1,14-1.85l.91.15c-1.29-7.1-2.55-14-3.8-21-1.55-8.55-3.07-17.1-4.62-25.65q-2.79-15.39-5.61-30.79c-.52-2.86-1-5.73-1.47-8.6a3.65,3.65,0,0,1,1.7-3.82,3.7,3.7,0,0,1,4.38.42,138.69,138.69,0,0,0,18.17,13.32,65.2,65.2,0,0,1,12,9.38,27.4,27.4,0,0,1,7.3,13.08,81.07,81.07,0,0,1,1.92,11.21,30.76,30.76,0,0,1-2.32,14.19,11.08,11.08,0,0,1-1.4,2.4c-.26.35-1,.74-1.24.62a1.66,1.66,0,0,1-.78-1.28,31.24,31.24,0,0,1,.37-4.09,47.72,47.72,0,0,0-.58-16.21c-1.26-6.49-4.94-11.34-10.27-15.09a36.39,36.39,0,0,0-18.14-6.58,3.59,3.59,0,0,0-.55.06c.35,1.66.74,3.28,1,4.92q1.63,8.79,3.2,17.59c1.8,10,3.57,20,5.37,30,1.4,7.75,2.64,15.52,4.3,23.21a15.62,15.62,0,0,1-1.44,11.1H711.36a18.78,18.78,0,0,1,2.3-5.48,10.55,10.55,0,0,1,8.18-5.2c6.93-.88,13.22,2,18.71,8.8l16.87-46.5c1.19.33,1.91.49,2.61.73,1.12.37,2.23.8,3.86,1.39-.52,1.41-.94,2.59-1.37,3.76-5.14,14.17-10.66,28.22-15.46,42.5H800V452.14A81.86,81.86,0,0,1,800,418.1ZM70.47,646.25c-9.84-1.29-14.8-8.3-12.85-18a10.49,10.49,0,0,1,5.91-7.67c6.21-3.2,13.12-2.62,20.59,1.88V573c1.23-.1,2-.2,2.7-.21,1.18,0,2.36,0,4.1,0v4c0,17.26-.52,34.55.16,51.79C91.6,641.54,79.9,647.49,70.47,646.25ZM726.64,74.73a3.7,3.7,0,0,1,4.3-.92A138,138,0,0,0,752.27,81a65,65,0,0,1,14.28,5.33,27.51,27.51,0,0,1,10.91,10.27,81.08,81.08,0,0,1,5.2,10.11A30.62,30.62,0,0,1,784.73,121a11.35,11.35,0,0,1-.6,2.7c-.15.41-.71,1-1,1a1.67,1.67,0,0,1-1.13-1,32.36,32.36,0,0,1-.88-4,47.92,47.92,0,0,0-5.44-15.27c-3.16-5.81-8.13-9.33-14.35-11.3a36.39,36.39,0,0,0-19.28-.79,3.41,3.41,0,0,0-.51.22c.84,1.48,1.7,2.9,2.48,4.37q4.2,7.89,8.36,15.81,7.1,13.5,14.19,27c3.66,7,7.19,14,11.09,20.83,3,5.31,2.88,10.48.39,15.79a24.7,24.7,0,0,1-10,10.92,18.38,18.38,0,0,1-12.82,2.69,11.5,11.5,0,0,1-9.65-11.46c0-6.58,3-11.79,7.64-16.14a22,22,0,0,1,12.81-6l.91-.13c-3.37-6.38-6.67-12.61-9.95-18.84q-6.09-11.52-12.14-23.06-7.32-13.83-14.64-27.66c-1.36-2.57-2.68-5.16-4-7.75A3.64,3.64,0,0,1,726.64,74.73ZM712.52,317c2.67-1.17,5.35-2.3,8-3.42a3.62,3.62,0,0,1,4.11.76,3.69,3.69,0,0,1,.61,4.36,136.91,136.91,0,0,0-8.73,20.76,66,66,0,0,1-6.34,13.86,27.57,27.57,0,0,1-11,10.14,80.62,80.62,0,0,1-10.45,4.46,30.66,30.66,0,0,1-14.34,1,11.18,11.18,0,0,1-2.66-.8c-.4-.18-1-.77-.89-1.06a1.72,1.72,0,0,1,1.06-1.06,30.69,30.69,0,0,1,4.07-.59,47.77,47.77,0,0,0,15.63-4.33c6-2.73,9.88-7.43,12.3-13.49a36.51,36.51,0,0,0,2.18-19.17,4.12,4.12,0,0,0-.19-.53c-1.53.74-3,1.49-4.54,2.16q-8.18,3.63-16.37,7.2-14,6.11-28,12.2c-7.21,3.15-14.48,6.17-21.57,9.56-5.52,2.65-10.67,2.12-15.78-.75a24.63,24.63,0,0,1-10.17-10.8,18.4,18.4,0,0,1-1.76-13,11.49,11.49,0,0,1,12.12-8.8c6.57.45,11.55,3.79,15.55,8.78a21.89,21.89,0,0,1,5,13.21c0,.25,0,.5.07.91L660,340q11.93-5.22,23.87-10.44Q698.21,323.29,712.52,317Zm-145-306.25c.8-.88,1.63-1.72,2.82-3l2.9,2.76C585.8,22.4,598,34.68,610.94,46.05c9.74,8.54,6,21.12-1.4,27.11-7.71,6.25-16.21,5-21.88-3.06a10.55,10.55,0,0,1-1.49-9.58c2-6.7,7.14-11.31,15.55-13.62L565.86,12.83C566.63,11.87,567.07,11.27,567.56,10.73Zm-50,194.17a27.48,27.48,0,0,1,14.05,5.23c1.8,1.35,3.36,3,5.13,4.61.51-1,1.07-2,1.6-3q2.87-5.62,5.69-11.26c2.51-5,5-10,7.51-15l7.69-15.23q4.92-9.76,9.82-19.54c2.32-4.57,4.64-9.15,7-13.7.91-1.74,3.33-2.47,5.38-1.85,7.29,2.19,14.59,4.35,21.89,6.53l23.15,6.92,26.69,8c5.72,1.71,11.46,3.39,17.17,5.14a4.73,4.73,0,0,1,2.67,6.91l-9.35,18.52c-3.33,6.57-6.68,13.12-10,19.7s-6.49,13-9.75,19.45q-4.12,8.16-8.28,16.31c-2.34,4.61-4.82,9.15-7,13.84-4.31,9.32-12,13.13-21.74,13.51a28,28,0,0,1-17.23-4.84c-5.55-3.79-9.3-8.79-9.26-15.86,0-5.14,2.42-9.25,6.34-12.4,6.45-5.19,13.93-6.39,21.92-5.08a27.17,27.17,0,0,1,13.7,6.33c1.11,1,2.08,2.11,3.27,3.33L641,211.09l-79.14-25.2L556.23,197q-3.72,7.31-7.42,14.62c-3.54,7-7,14.07-10.61,21a18.36,18.36,0,0,1-9.23,8.25,29,29,0,0,1-25.85-.89c-4.81-2.46-8.67-6.05-10.63-11.28a15.77,15.77,0,0,1,4.79-18.06C503.17,205.74,510.05,204.19,517.53,204.9ZM254,181a3.33,3.33,0,0,1,3.78-.15c6.69,4.59,14.15,7.7,21.38,11.27A36.52,36.52,0,0,1,291,200.62a33.48,33.48,0,0,1,5.83,10.84,32.59,32.59,0,0,1,1.74,15.71,26.55,26.55,0,0,1-1.49,5.08,1.31,1.31,0,0,1-1.07.65,1.39,1.39,0,0,1-.75-1.06c-.14-2-.09-4-.23-5.92a38.37,38.37,0,0,0-4-15.1,20.22,20.22,0,0,0-8.57-8.24,32.29,32.29,0,0,0-17.16-4l-.45,0a1.83,1.83,0,0,0-.26.14c.77,2.37,1.55,4.76,2.34,7.15q4.17,12.62,8.37,25.25l8.82,26.51c.91,2.72,1.93,5.4,2.66,8.16,1.11,4.22-.21,8-2.63,11.45a21.24,21.24,0,0,1-15.69,9.36c-4.63.46-8.85-.68-11.61-4.87a10.61,10.61,0,0,1-1-9.33,21.12,21.12,0,0,1,20.14-14.36h1.26c-.44-1.38-.82-2.64-1.24-3.9-2.53-7.61-5.08-15.21-7.59-22.83-2.24-6.8-4.41-13.62-6.66-20.42-2.56-7.71-5.17-15.4-7.76-23.1-.35-1.06-.71-2.11-1-3.18A3.26,3.26,0,0,1,254,181Zm-37.2-76.82a10.49,10.49,0,0,1,5.91-7.67c6.21-3.2,13.12-2.62,20.59,1.88V48.92c1.23-.1,2-.2,2.7-.21,1.18,0,2.36,0,4.1,0v4c0,17.26-.52,34.55.17,51.78.51,13-11.18,18.89-20.62,17.66C219.84,120.85,214.88,113.84,216.83,104.17ZM110,179.56c2.35-7.94,7.81-13.19,15.12-16.67a27,27,0,0,1,14.86-2.6c1.47.16,2.91.54,4.59.87q-2.34-16.87-4.68-33.71L60.48,151.83q.84,6.16,1.7,12.34,1.11,8.12,2.23,16.24c1.09,7.77,2.29,15.53,3.27,23.31a18.39,18.39,0,0,1-2.89,12,29,29,0,0,1-21.75,14c-5.36.73-10.57,0-15.17-3.21A15.75,15.75,0,0,1,21.53,209c2-7.4,6.8-12.6,13.35-16.27A27.34,27.34,0,0,1,49.41,189c2.24.08,4.48.55,6.84.86-.13-1.08-.24-2.24-.4-3.4-.57-4.16-1.16-8.33-1.74-12.49q-1.17-8.28-2.35-16.56Q50.58,149,49.4,140.51q-1.53-10.81-3.06-21.65c-.71-5.08-1.4-10.16-2-15.25-.25-2,1.33-3.93,3.37-4.59q10.86-3.54,21.71-7.11l23-7.51,26.47-8.66c5.68-1.86,11.35-3.75,17.05-5.56A4.73,4.73,0,0,1,142,74.34c.94,6.85,1.91,13.7,2.86,20.55,1,7.29,2,14.59,3,21.88s2.06,14.35,3.07,21.53c.85,6,1.66,12.09,2.49,18.13.71,5.12,1.25,10.27,2.15,15.35,1.77,10.12-2.38,17.63-10.17,23.49a28,28,0,0,1-16.91,5.85c-6.73,0-12.66-1.93-16.66-7.76C108.93,189.11,108.56,184.37,110,179.56Zm64.23,146.55c-.33.29-1.1.52-1.34.34a1.65,1.65,0,0,1-.5-1.4,31.41,31.41,0,0,1,1.23-3.93,47.8,47.8,0,0,0,2.83-16c.13-6.61-2.45-12.12-6.88-16.91A36.42,36.42,0,0,0,153.19,278c-.1,0-.21,0-.55-.06,0,1.71,0,3.37,0,5q-.25,8.94-.56,17.87-.52,15.26-1,30.51c-.26,7.86-.68,15.72-.67,23.58,0,6.12-2.68,10.54-7.48,13.92a24.71,24.71,0,0,1-14.13,4.52,18.37,18.37,0,0,1-12.47-4,11.46,11.46,0,0,1-2.71-14.72c3.23-5.74,8.39-8.79,14.62-10.25a21.94,21.94,0,0,1,14.09,1.14l.86.33c.23-7.21.45-14.26.68-21.3q.42-13,.86-26,.5-15.64,1-31.28c.09-2.91.22-5.81.36-8.71a3.65,3.65,0,0,1,2.47-3.39,3.7,3.7,0,0,1,4.19,1.33,137.46,137.46,0,0,0,15,16.83,65.19,65.19,0,0,1,9.77,11.7,27.5,27.5,0,0,1,4.39,14.32,79.66,79.66,0,0,1-.48,11.36,30.57,30.57,0,0,1-5.24,13.39A10.7,10.7,0,0,1,174.21,326.11ZM299.12,499.38a27.94,27.94,0,0,1-16.81,6.11c-6.73.15-12.69-1.72-16.78-7.48-3-4.2-3.42-8.93-2.08-13.77,2.22-8,7.59-13.31,14.85-16.91a27.12,27.12,0,0,1,14.81-2.85c1.48.14,2.92.5,4.61.8-3.25-20.87-6.48-41.65-9.73-62.56l-78.73,27.15c.39,2.61.76,5.15,1.16,7.68.79,5.1,1.6,10.21,2.4,15.32q1.31,8.37,2.59,16.75c.83,5.41,1.65,10.81,2.5,16.21,1.21,7.75,2.54,15.49,3.64,23.26a18.37,18.37,0,0,1-2.7,12.08c-4.86,8.21-12.17,12.92-21.51,14.35-5.35.81-10.58.15-15.22-3a15.77,15.77,0,0,1-6.63-17.47c1.91-7.43,6.59-12.7,13.09-16.49A27.38,27.38,0,0,1,203,494.67c2.25,0,4.49.48,6.85.75-.14-1.07-.27-2.24-.45-3.39q-1-6.24-1.94-12.46-1.31-8.26-2.62-16.53-1.32-8.43-2.63-16.86-1.71-10.8-3.41-21.6c-.79-5.07-1.57-10.14-2.29-15.22-.28-1.95,1.26-3.94,3.29-4.64q10.82-3.71,21.59-7.46l22.85-7.88,26.31-9.09c5.65-2,11.29-3.93,17-5.83a4.72,4.72,0,0,1,6.2,4.06c1.06,6.83,2.14,13.66,3.2,20.49,1.12,7.28,2.22,14.56,3.36,21.83s2.29,14.32,3.42,21.49c.95,6,1.86,12.05,2.79,18.08.78,5.11,1.41,10.24,2.39,15.32C310.85,485.81,306.81,493.39,299.12,499.38Zm134.72,61.79a138.42,138.42,0,0,0-8.74,20.76,65,65,0,0,1-6.34,13.86,27.55,27.55,0,0,1-11,10.14,80.74,80.74,0,0,1-10.46,4.46,30.65,30.65,0,0,1-14.34,1,10.87,10.87,0,0,1-2.66-.8c-.4-.18-.94-.77-.88-1.06a1.68,1.68,0,0,1,1.05-1.06,31.06,31.06,0,0,1,4.08-.58,48,48,0,0,0,15.62-4.34c6-2.73,9.88-7.43,12.3-13.49a36.41,36.41,0,0,0,2.18-19.17,3.48,3.48,0,0,0-.18-.53c-1.54.74-3,1.49-4.55,2.16q-8.16,3.63-16.36,7.2-14,6.11-28,12.2c-7.2,3.16-14.48,6.17-21.57,9.56-5.52,2.65-10.66,2.13-15.78-.74A24.76,24.76,0,0,1,318,590a18.34,18.34,0,0,1-1.75-13,11.48,11.48,0,0,1,12.11-8.8C335,568.64,340,572,343.94,577A22,22,0,0,1,349,590.18c0,.25,0,.5.07.92,6.6-2.91,13.05-5.75,19.5-8.57l23.87-10.45,28.65-12.61c2.66-1.17,5.34-2.29,8-3.42a3.63,3.63,0,0,1,4.12.77A3.71,3.71,0,0,1,433.84,561.17Zm4.68-161.62c-1.51.61-3.07,1.12-4.93,1.79.41,2.8,1,5.58,1.17,8.38a90.42,90.42,0,0,1,.3,13.46c-1.15,13.35-9,21.13-22.74,22.53a31.71,31.71,0,0,1-11.66-.82c-8.11-2.34-12.28-12.57-8.63-20.2,2.17-4.54,6.21-6.46,11-6.47s9,2,11.34,6.55c2.24,4.32,2.38,8.16.52,13.44a14.62,14.62,0,0,0,9.9-8.95c2.63-6.13,3.43-19,1.53-26.13-7.68,1.32-15.4,1.64-23-.37-22-5.79-35.6-29.84-29.63-52.9,4.85-18.73,15.88-33.34,31.16-44.8,3.53-2.65,4.56-5,3.63-9.47A118.32,118.32,0,0,1,409.51,243a38.23,38.23,0,0,1,5.24-11.95c5.51-8.24,15-8,19.55.75a66.15,66.15,0,0,1,5.7,17.7,88.2,88.2,0,0,1-.32,32.75C437.41,294.58,430,304,421.89,312.9a7.85,7.85,0,0,0-2.23,7.6c1.14,5.78,2,11.62,3,17.52,2.51-.4,4.64-.92,6.79-1,11.2-.64,19.07,5,24.89,13.88C466.76,369.75,459.8,391,438.52,399.55ZM479.35,107a27.37,27.37,0,0,1-14.08-5.15c-1.81-1.33-3.38-3-5.15-4.57-.51,1-1.07,2-1.59,3q-2.82,5.64-5.62,11.29l-7.41,15q-3.79,7.64-7.6,15.28c-3.24,6.53-6.45,13.07-9.7,19.6-2.29,4.59-4.58,9.18-6.93,13.74-.9,1.75-3.31,2.49-5.37,1.88L394,170.7l-23.2-6.77L344,156.14c-5.74-1.68-11.48-3.32-17.21-5a4.73,4.73,0,0,1-2.71-6.89c3.09-6.19,6.15-12.39,9.24-18.58,3.28-6.59,6.59-13.16,9.86-19.76s6.41-13,9.63-19.51C355.56,80.9,358.31,75.45,361,70c2.31-4.63,4.77-9.18,6.9-13.88,4.25-9.36,11.92-13.21,21.66-13.65a27.89,27.89,0,0,1,17.25,4.73c5.58,3.76,9.37,8.73,9.37,15.8,0,5.15-2.37,9.27-6.26,12.44-6.42,5.23-13.89,6.48-21.89,5.22a27.24,27.24,0,0,1-13.74-6.24c-1.12-1-2.09-2.1-3.3-3.32l-28.21,56.68,79.94,23.35c1.19-2.36,2.35-4.64,3.49-6.93q3.45-6.94,6.9-13.9,3.78-7.59,7.57-15.17,3.66-7.34,7.32-14.67c3.49-7,6.88-14.1,10.48-21.08a18.33,18.33,0,0,1,9.18-8.31c8.71-3.88,17.4-3.5,25.85.73,4.83,2.43,8.71,6,10.71,11.21a15.79,15.79,0,0,1-4.68,18.09C493.71,106.06,486.84,107.66,479.35,107Zm41.8,549.14c-9.84-1.29-14.81-8.3-12.86-18a10.54,10.54,0,0,1,5.92-7.67c6.21-3.19,13.12-2.62,20.59,1.89V582.91c1.22-.1,2-.2,2.69-.22,1.19,0,2.37,0,4.1,0v4c0,17.26-.51,34.55.17,51.78C542.28,651.41,530.58,657.36,521.15,656.13Zm32-189.29c-.33.28-1.11.52-1.34.34a1.66,1.66,0,0,1-.5-1.41,31.79,31.79,0,0,1,1.23-3.92,48.08,48.08,0,0,0,2.82-16c.14-6.61-2.45-12.12-6.87-16.91a36.47,36.47,0,0,0-16.36-10.24c-.1,0-.21,0-.55-.06,0,1.71,0,3.37,0,5q-.25,8.94-.56,17.87-.53,15.26-1,30.51c-.26,7.86-.68,15.72-.67,23.58,0,6.12-2.69,10.54-7.48,13.92a24.78,24.78,0,0,1-14.13,4.52,18.36,18.36,0,0,1-12.47-4,11.48,11.48,0,0,1-2.72-14.72c3.24-5.74,8.4-8.79,14.63-10.25a22,22,0,0,1,14.09,1.13c.23.11.48.19.86.34.23-7.22.45-14.26.68-21.3q.42-13,.86-26,.49-15.64,1-31.28c.1-2.91.23-5.81.37-8.71a3.64,3.64,0,0,1,2.47-3.39,3.7,3.7,0,0,1,4.19,1.33,137.46,137.46,0,0,0,15,16.83,65.19,65.19,0,0,1,9.77,11.7A27.5,27.5,0,0,1,560.73,440a79.66,79.66,0,0,1-.48,11.36A30.81,30.81,0,0,1,555,464.79,10.7,10.7,0,0,1,553.14,466.84ZM649,738.37a80.22,80.22,0,0,1-5.41,10A30.71,30.71,0,0,1,633,758.1a10.84,10.84,0,0,1-2.58,1c-.42.11-1.22,0-1.35-.28a1.65,1.65,0,0,1,.17-1.48,30.68,30.68,0,0,1,2.82-3,48,48,0,0,0,9.55-13.11c3-5.88,3.12-12,1.25-18.22a36.42,36.42,0,0,0-10.21-16.37,5.48,5.48,0,0,0-.47-.29c-.75,1.53-1.44,3-2.21,4.51q-4.15,7.92-8.36,15.81-7.15,13.47-14.32,26.95c-3.69,7-7.52,13.83-11,20.9-2.68,5.5-7,8.29-12.83,9.22a24.82,24.82,0,0,1-14.68-2.14,18.43,18.43,0,0,1-9.44-9.09,11.48,11.48,0,0,1,4-14.42c5.43-3.74,11.41-4.21,17.64-2.79a22,22,0,0,1,12.17,7.21c.16.19.34.37.62.68,3.37-6.39,6.66-12.62,10-18.84q6.09-11.52,12.2-23,7.32-13.85,14.61-27.68c1.36-2.57,2.75-5.12,4.15-7.67a3.65,3.65,0,0,1,3.71-2,3.7,3.7,0,0,1,3.18,3,137.13,137.13,0,0,0,6.06,21.69,65.53,65.53,0,0,1,3.65,14.8A27.43,27.43,0,0,1,649,738.37Zm63.28-194.5c-6.73.15-12.69-1.72-16.78-7.49-3-4.19-3.42-8.93-2.08-13.76,2.22-8,7.6-13.32,14.85-16.91a27.07,27.07,0,0,1,14.82-2.85c1.47.14,2.92.5,4.6.8-3.24-20.87-6.48-41.65-9.73-62.56l-78.73,27.15c.39,2.61.77,5.14,1.16,7.67.8,5.11,1.61,10.22,2.4,15.33q1.3,8.37,2.59,16.75c.83,5.4,1.65,10.81,2.5,16.21,1.22,7.75,2.54,15.49,3.64,23.25a18.41,18.41,0,0,1-2.69,12.09,29,29,0,0,1-21.52,14.34c-5.35.82-10.57.16-15.22-2.95a15.77,15.77,0,0,1-6.63-17.47c1.91-7.43,6.6-12.71,13.09-16.49a27.42,27.42,0,0,1,14.46-3.93c2.25,0,4.49.48,6.86.75-.15-1.08-.28-2.24-.46-3.39q-1-6.24-1.94-12.47-1.31-8.25-2.62-16.52-1.32-8.43-2.63-16.86c-1.13-7.2-2.29-14.4-3.41-21.6-.79-5.07-1.57-10.14-2.29-15.22-.28-1.95,1.26-3.95,3.3-4.64,7.2-2.47,14.39-5,21.59-7.46l22.84-7.88,26.32-9.09c5.65-1.95,11.29-3.93,16.95-5.83a4.72,4.72,0,0,1,6.2,4.05c1.06,6.84,2.14,13.67,3.2,20.5,1.13,7.28,2.23,14.55,3.37,21.83s2.29,14.32,3.41,21.48c1,6,1.86,12.06,2.79,18.09.78,5.1,1.41,10.24,2.39,15.31,1.94,10.09-2.09,17.66-9.79,23.65A27.93,27.93,0,0,1,712.32,543.87Zm46.92,106.34c-7.71,6.24-16.21,5-21.89-3.07a10.52,10.52,0,0,1-1.48-9.57c2-6.7,7.13-11.31,15.54-13.63l-35.86-34.06c.78-1,1.21-1.56,1.71-2.1.79-.88,1.62-1.72,2.82-3l2.89,2.75c12.52,11.89,24.7,24.17,37.67,35.55C770.37,631.64,766.63,644.22,759.24,650.21Z"/><path class="cls-1" d="M654.2,185l-79.79-23.85c-1.21,2.36-2.38,4.63-3.54,6.92l-3.22,6.39,79.08,25.32Z"/><path class="cls-1" d="M56.67,124.32c.35,2.62.69,5.15,1,7.69l1,7.09,79.42-24.24c-.77-5.47-1.52-10.93-2.29-16.41Z"/><path class="cls-1" d="M425.16,353.18c2.18,12.7,4.35,25.35,6.57,38.33,9.83-5.25,14.85-15.72,12.38-25C442.06,358.83,433.84,352.89,425.16,353.18Z"/><path class="cls-1" d="M54.63,483.18a52.91,52.91,0,0,0,12.36-6c2.85-1.84,5-4.77,7.78-7.55l-31.26-28c-7.27,8.58-2.72,26.61,8.36,26.91a3.94,3.94,0,0,1,2.14.79c.72.58,1.7,1.43,1.69,2.16A2.75,2.75,0,0,1,54,473.56c-2.77.3-5.73.83-8.37.21-10.13-2.39-17.46-11.9-17.74-22.36A32.57,32.57,0,0,1,32.13,435c.87-1.62.89-2.7-.59-3.95-3.93-3.31-7.76-6.74-12.11-10.54-1.16,6.56-2.05,12.52-3.31,18.39C14,449,15.6,458.61,19.87,467.79,26.67,482.44,39.26,488.09,54.63,483.18Z"/><path class="cls-1" d="M223.8,641.78q-17,38.06-34,76l6.4,4.4,5.92,4,35.34-75.13Z"/><path class="cls-1" d="M71.33,436c-6.4-4.74-16.53-4.26-23.14,1.37l29,25.88C81.64,453,79,441.7,71.33,436Z"/><path class="cls-1" d="M408.6,379.87a3.84,3.84,0,0,1,1.18,1.94c.21.9.44,2.18,0,2.74a2.74,2.74,0,0,1-2.63.53c-2.36-1.5-5-2.93-6.68-5.06-6.43-8.17-6.24-20.18.06-28.54a32.58,32.58,0,0,1,13.55-10.14c1.69-.73,2.39-1.56,2-3.46-1-5-1.87-10.1-2.91-15.79-5,4.4-9.4,8.51-14.05,12.32-8,6.54-12.67,15.06-15.06,24.9-3.81,15.7,2.52,28,17.6,33.7a52.49,52.49,0,0,0,13.4,3c3.37.34,6.87-.61,10.79-1-2.41-14.2-4.71-27.78-7-41.37C407.8,355.78,400.12,372.71,408.6,379.87Z"/><path class="cls-1" d="M417.05,295.47c3.6-4.64,7.59-9,10.72-14,5.55-8.76,6.26-18.28,3-28.12-.77-2.36-1.65-5.25-4.38-5-1.82.17-4,2.15-5.08,3.89-8.38,13.33-7.61,27.88-5.49,42.56Z"/><path class="cls-4" d="M504.25,83c-2-5.22-5.88-8.78-10.71-11.21-8.45-4.23-17.14-4.61-25.85-.73a18.33,18.33,0,0,0-9.18,8.31c-3.6,7-7,14.05-10.48,21.08q-3.64,7.35-7.32,14.67-3.79,7.59-7.57,15.17-3.47,6.94-6.9,13.9c-1.14,2.29-2.3,4.57-3.49,6.93l-79.94-23.35L371,71.1c1.21,1.22,2.18,2.35,3.3,3.32a27.24,27.24,0,0,0,13.74,6.24c8,1.26,15.47,0,21.89-5.22,3.89-3.17,6.26-7.29,6.26-12.44,0-7.07-3.79-12-9.37-15.8a27.89,27.89,0,0,0-17.25-4.73c-9.74.44-17.41,4.29-21.66,13.65-2.13,4.7-4.59,9.25-6.9,13.88-2.72,5.45-5.47,10.9-8.18,16.36-3.22,6.5-6.4,13-9.63,19.51s-6.58,13.17-9.86,19.76c-3.09,6.19-6.15,12.39-9.24,18.58a4.73,4.73,0,0,0,2.71,6.89c5.73,1.72,11.47,3.36,17.21,5l26.73,7.79L394,170.7l21.93,6.39c2.06.61,4.47-.13,5.37-1.88,2.35-4.56,4.64-9.15,6.93-13.74,3.25-6.53,6.46-13.07,9.7-19.6q3.8-7.65,7.6-15.28l7.41-15q2.8-5.66,5.62-11.29c.52-1,1.08-2.07,1.59-3,1.77,1.59,3.34,3.24,5.15,4.57A27.37,27.37,0,0,0,479.35,107c7.49.67,14.36-.93,20.22-5.89A15.79,15.79,0,0,0,504.25,83Z"/><path class="cls-4" d="M306.52,460.41c-.93-6-1.84-12.06-2.79-18.08-1.13-7.17-2.29-14.32-3.42-21.49S298.07,406.29,297,399c-1.06-6.83-2.14-13.66-3.2-20.49a4.72,4.72,0,0,0-6.2-4.06c-5.67,1.9-11.31,3.88-17,5.83l-26.31,9.09-22.85,7.88q-10.78,3.74-21.59,7.46c-2,.7-3.57,2.69-3.29,4.64.72,5.08,1.5,10.15,2.29,15.22q1.68,10.82,3.41,21.6,1.32,8.43,2.63,16.86,1.31,8.26,2.62,16.53,1,6.23,1.94,12.46c.18,1.15.31,2.32.45,3.39-2.36-.27-4.6-.71-6.85-.75a27.38,27.38,0,0,0-14.46,3.93c-6.5,3.79-11.18,9.06-13.09,16.49a15.77,15.77,0,0,0,6.63,17.47c4.64,3.11,9.87,3.77,15.22,3,9.34-1.43,16.65-6.14,21.51-14.35a18.37,18.37,0,0,0,2.7-12.08c-1.1-7.77-2.43-15.51-3.64-23.26-.85-5.4-1.67-10.8-2.5-16.21q-1.29-8.37-2.59-16.75c-.8-5.11-1.61-10.22-2.4-15.32-.4-2.53-.77-5.07-1.16-7.68L288,402.72c3.25,20.91,6.48,41.69,9.73,62.56-1.69-.3-3.13-.66-4.61-.8a27.12,27.12,0,0,0-14.81,2.85c-7.26,3.6-12.63,8.93-14.85,16.91-1.34,4.84-.89,9.57,2.08,13.77,4.09,5.76,10.05,7.63,16.78,7.48a27.94,27.94,0,0,0,16.81-6.11c7.69-6,11.73-13.57,9.79-23.65C307.93,470.65,307.3,465.52,306.52,460.41Z"/><path class="cls-4" d="M738.92,514.1c-1-5.07-1.61-10.21-2.39-15.31-.93-6-1.84-12.06-2.79-18.09-1.12-7.16-2.29-14.32-3.41-21.48s-2.24-14.55-3.37-21.83c-1.06-6.83-2.14-13.66-3.2-20.5a4.72,4.72,0,0,0-6.2-4.05c-5.66,1.9-11.3,3.88-16.95,5.83l-26.32,9.09-22.84,7.88c-7.2,2.48-14.39,5-21.59,7.46-2,.69-3.58,2.69-3.3,4.64.72,5.08,1.5,10.15,2.29,15.22,1.12,7.2,2.28,14.4,3.41,21.6q1.32,8.43,2.63,16.86,1.3,8.26,2.62,16.52,1,6.24,1.94,12.47c.18,1.15.31,2.31.46,3.39-2.37-.27-4.61-.71-6.86-.75A27.42,27.42,0,0,0,618.59,537c-6.49,3.78-11.18,9.06-13.09,16.49a15.77,15.77,0,0,0,6.63,17.47c4.65,3.11,9.87,3.77,15.22,2.95a29,29,0,0,0,21.52-14.34,18.41,18.41,0,0,0,2.69-12.09c-1.1-7.76-2.42-15.5-3.64-23.25-.85-5.4-1.67-10.81-2.5-16.21q-1.29-8.37-2.59-16.75c-.79-5.11-1.6-10.22-2.4-15.33-.39-2.53-.77-5.06-1.16-7.67L718,441.1c3.25,20.91,6.49,41.69,9.73,62.56-1.68-.3-3.13-.66-4.6-.8a27.07,27.07,0,0,0-14.82,2.85c-7.25,3.59-12.63,8.93-14.85,16.91-1.34,4.83-.89,9.57,2.08,13.76,4.09,5.77,10.05,7.64,16.78,7.49a27.93,27.93,0,0,0,16.81-6.12C736.83,531.76,740.86,524.19,738.92,514.1Z"/><path class="cls-4" d="M176.08,324.06a30.57,30.57,0,0,0,5.24-13.39,79.66,79.66,0,0,0,.48-11.36A27.5,27.5,0,0,0,177.41,285a65.19,65.19,0,0,0-9.77-11.7,137.46,137.46,0,0,1-15-16.83,3.7,3.7,0,0,0-4.19-1.33,3.65,3.65,0,0,0-2.47,3.39c-.14,2.9-.27,5.8-.36,8.71q-.51,15.64-1,31.28-.42,13-.86,26c-.23,7-.45,14.09-.68,21.3l-.86-.33a21.94,21.94,0,0,0-14.09-1.14c-6.23,1.46-11.39,4.51-14.62,10.25a11.46,11.46,0,0,0,2.71,14.72,18.37,18.37,0,0,0,12.47,4,24.71,24.71,0,0,0,14.13-4.52c4.8-3.38,7.49-7.8,7.48-13.92,0-7.86.41-15.72.67-23.58q.51-15.25,1-30.51.3-8.93.56-17.87c.05-1.66,0-3.32,0-5,.34,0,.45,0,.55.06a36.42,36.42,0,0,1,16.36,10.24c4.43,4.79,7,10.3,6.88,16.91a47.8,47.8,0,0,1-2.83,16,31.41,31.41,0,0,0-1.23,3.93,1.65,1.65,0,0,0,.5,1.4c.24.18,1-.05,1.34-.34A10.7,10.7,0,0,0,176.08,324.06Z"/><path class="cls-4" d="M560.73,440a27.5,27.5,0,0,0-4.39-14.32,65.19,65.19,0,0,0-9.77-11.7,137.46,137.46,0,0,1-15-16.83,3.7,3.7,0,0,0-4.19-1.33,3.64,3.64,0,0,0-2.47,3.39c-.14,2.9-.27,5.8-.37,8.71q-.5,15.65-1,31.28-.42,13-.86,26c-.23,7-.45,14.08-.68,21.3-.38-.15-.63-.23-.86-.34a22,22,0,0,0-14.09-1.13c-6.23,1.46-11.39,4.51-14.63,10.25a11.48,11.48,0,0,0,2.72,14.72,18.36,18.36,0,0,0,12.47,4,24.78,24.78,0,0,0,14.13-4.52c4.79-3.38,7.48-7.8,7.48-13.92,0-7.86.41-15.72.67-23.58q.51-15.25,1-30.51.3-8.93.56-17.87c.05-1.66,0-3.32,0-5,.34,0,.45,0,.55.06A36.47,36.47,0,0,1,548.48,429c4.42,4.79,7,10.3,6.87,16.91a48.08,48.08,0,0,1-2.82,16,31.79,31.79,0,0,0-1.23,3.92,1.66,1.66,0,0,0,.5,1.41c.23.18,1-.06,1.34-.34a10.7,10.7,0,0,0,1.87-2,30.81,30.81,0,0,0,5.24-13.39A79.66,79.66,0,0,0,560.73,440Z"/><path class="cls-4" d="M647.74,708.78a137.13,137.13,0,0,1-6.06-21.69,3.7,3.7,0,0,0-3.18-3,3.65,3.65,0,0,0-3.71,2c-1.4,2.55-2.79,5.1-4.15,7.67q-7.32,13.83-14.61,27.68-6.09,11.52-12.2,23c-3.3,6.22-6.59,12.45-10,18.84-.28-.31-.46-.49-.62-.68a22,22,0,0,0-12.17-7.21c-6.23-1.42-12.21-1-17.64,2.79a11.48,11.48,0,0,0-4,14.42,18.43,18.43,0,0,0,9.44,9.09,24.82,24.82,0,0,0,14.68,2.14c5.79-.93,10.15-3.72,12.83-9.22,3.44-7.07,7.27-13.95,11-20.9q7.14-13.49,14.32-26.95,4.2-7.89,8.36-15.81c.77-1.47,1.46-3,2.21-4.51a5.48,5.48,0,0,1,.47.29A36.42,36.42,0,0,1,642.9,723c1.87,6.25,1.77,12.34-1.25,18.22a48,48,0,0,1-9.55,13.11,30.68,30.68,0,0,0-2.82,3,1.65,1.65,0,0,0-.17,1.48c.13.27.93.39,1.35.28a10.84,10.84,0,0,0,2.58-1,30.71,30.71,0,0,0,10.59-9.73,80.22,80.22,0,0,0,5.41-10,27.43,27.43,0,0,0,2.35-14.79A65.53,65.53,0,0,0,647.74,708.78Z"/><path class="cls-4" d="M730.16,86.65q7.3,13.83,14.64,27.66,6.08,11.52,12.14,23.06c3.28,6.23,6.58,12.46,9.95,18.84l-.91.13a22,22,0,0,0-12.81,6c-4.69,4.35-7.67,9.56-7.64,16.14a11.5,11.5,0,0,0,9.65,11.46A18.38,18.38,0,0,0,768,187.24a24.7,24.7,0,0,0,10-10.92c2.49-5.31,2.64-10.48-.39-15.79-3.9-6.83-7.43-13.87-11.09-20.83q-7.12-13.5-14.19-27-4.17-7.92-8.36-15.81c-.78-1.47-1.64-2.89-2.48-4.37a3.41,3.41,0,0,1,.51-.22,36.39,36.39,0,0,1,19.28.79c6.22,2,11.19,5.49,14.35,11.3a47.92,47.92,0,0,1,5.44,15.27,32.36,32.36,0,0,0,.88,4,1.67,1.67,0,0,0,1.13,1c.29.05.85-.55,1-1a11.35,11.35,0,0,0,.6-2.7,30.62,30.62,0,0,0-2.07-14.23,81.08,81.08,0,0,0-5.2-10.11,27.51,27.51,0,0,0-10.91-10.27A65,65,0,0,0,752.27,81a138,138,0,0,1-21.33-7.22,3.7,3.7,0,0,0-4.3.92,3.64,3.64,0,0,0-.47,4.17C727.48,81.49,728.8,84.08,730.16,86.65Z"/><path class="cls-4" d="M429.11,556.05c-2.68,1.13-5.36,2.25-8,3.42l-28.65,12.61-23.87,10.45c-6.45,2.82-12.9,5.66-19.5,8.57,0-.42-.06-.67-.07-.92A22,22,0,0,0,343.94,577c-4-5-9-8.33-15.55-8.78a11.48,11.48,0,0,0-12.11,8.8A18.34,18.34,0,0,0,318,590a24.76,24.76,0,0,0,10.17,10.81c5.12,2.87,10.26,3.39,15.78.74,7.09-3.39,14.37-6.4,21.57-9.56q14-6.12,28-12.2,8.19-3.59,16.36-7.2c1.53-.67,3-1.42,4.55-2.16a3.48,3.48,0,0,1,.18.53,36.41,36.41,0,0,1-2.18,19.17c-2.42,6.06-6.28,10.76-12.3,13.49a48,48,0,0,1-15.62,4.34,31.06,31.06,0,0,0-4.08.58,1.68,1.68,0,0,0-1.05,1.06c-.06.29.48.88.88,1.06a10.87,10.87,0,0,0,2.66.8,30.65,30.65,0,0,0,14.34-1,80.74,80.74,0,0,0,10.46-4.46,27.55,27.55,0,0,0,11-10.14,65,65,0,0,0,6.34-13.86,138.42,138.42,0,0,1,8.74-20.76,3.71,3.71,0,0,0-.61-4.35A3.63,3.63,0,0,0,429.11,556.05Z"/><path class="cls-4" d="M457.05,788.9c-1.66-7.69-2.9-15.46-4.3-23.21-1.8-10-3.57-20-5.37-30q-1.58-8.8-3.2-17.59c-.3-1.64-.69-3.26-1-4.92a3.59,3.59,0,0,1,.55-.06,36.39,36.39,0,0,1,18.14,6.58c5.33,3.75,9,8.6,10.27,15.09a47.72,47.72,0,0,1,.58,16.21,31.24,31.24,0,0,0-.37,4.09,1.66,1.66,0,0,0,.78,1.28c.27.12,1-.27,1.24-.62a11.08,11.08,0,0,0,1.4-2.4,30.76,30.76,0,0,0,2.32-14.19,81.07,81.07,0,0,0-1.92-11.21,27.4,27.4,0,0,0-7.3-13.08,65.2,65.2,0,0,0-12-9.38,138.69,138.69,0,0,1-18.17-13.32,3.7,3.7,0,0,0-4.38-.42,3.65,3.65,0,0,0-1.7,3.82c.48,2.87.95,5.74,1.47,8.6q2.79,15.4,5.61,30.79c1.55,8.55,3.07,17.1,4.62,25.65,1.25,6.93,2.51,13.86,3.8,21l-.91-.15a22,22,0,0,0-14,1.85C427.37,786,423,790,421,796.32a12.11,12.11,0,0,0-.54,3.68h35.15A15.62,15.62,0,0,0,457.05,788.9Z"/><path class="cls-4" d="M640.5,348.6c0-.41-.06-.66-.07-.91a21.89,21.89,0,0,0-5-13.21c-4-5-9-8.33-15.55-8.78a11.49,11.49,0,0,0-12.12,8.8,18.4,18.4,0,0,0,1.76,13,24.63,24.63,0,0,0,10.17,10.8c5.11,2.87,10.26,3.4,15.78.75,7.09-3.39,14.36-6.41,21.57-9.56q14-6.12,28-12.2,8.19-3.58,16.37-7.2c1.52-.67,3-1.42,4.54-2.16a4.12,4.12,0,0,1,.19.53,36.51,36.51,0,0,1-2.18,19.17c-2.42,6.06-6.28,10.76-12.3,13.49A47.77,47.77,0,0,1,676,365.43a30.69,30.69,0,0,0-4.07.59,1.72,1.72,0,0,0-1.06,1.06c-.06.29.49.88.89,1.06a11.18,11.18,0,0,0,2.66.8,30.66,30.66,0,0,0,14.34-1,80.62,80.62,0,0,0,10.45-4.46,27.57,27.57,0,0,0,11-10.14,66,66,0,0,0,6.34-13.86,136.91,136.91,0,0,1,8.73-20.76,3.69,3.69,0,0,0-.61-4.36,3.62,3.62,0,0,0-4.11-.76c-2.68,1.12-5.36,2.25-8,3.42q-14.32,6.28-28.64,12.61Q672,334.83,660,340Z"/><path class="cls-4" d="M254,187.85c2.59,7.7,5.2,15.39,7.76,23.1,2.25,6.8,4.42,13.62,6.66,20.42,2.51,7.62,5.06,15.22,7.59,22.83.42,1.26.8,2.52,1.24,3.9h-1.26a21.12,21.12,0,0,0-20.14,14.36,10.61,10.61,0,0,0,1,9.33c2.76,4.19,7,5.33,11.61,4.87a21.24,21.24,0,0,0,15.69-9.36c2.42-3.42,3.74-7.23,2.63-11.45-.73-2.76-1.75-5.44-2.66-8.16l-8.82-26.51q-4.2-12.63-8.37-25.25c-.79-2.39-1.57-4.78-2.34-7.15a1.83,1.83,0,0,1,.26-.14l.45,0a32.29,32.29,0,0,1,17.16,4,20.22,20.22,0,0,1,8.57,8.24,38.37,38.37,0,0,1,4,15.1c.14,2,.09,4,.23,5.92a1.39,1.39,0,0,0,.75,1.06,1.31,1.31,0,0,0,1.07-.65,26.55,26.55,0,0,0,1.49-5.08,32.59,32.59,0,0,0-1.74-15.71A33.48,33.48,0,0,0,291,200.62a36.52,36.52,0,0,0-11.76-8.51c-7.23-3.57-14.69-6.68-21.38-11.27A3.33,3.33,0,0,0,254,181a3.26,3.26,0,0,0-1.13,3.68C253.24,185.74,253.6,186.79,254,187.85Z"/><path class="cls-4" d="M71.5,791.53Q67.09,778.27,62.67,765L54.3,739.76c-.79-2.38-1.56-4.77-2.34-7.14a1,1,0,0,1,.27-.14,2.12,2.12,0,0,1,.44,0,32.27,32.27,0,0,1,17.16,4,20.16,20.16,0,0,1,8.57,8.24,38.11,38.11,0,0,1,4,15.09c.15,2,.1,4,.23,5.92a1.42,1.42,0,0,0,.75,1.06,1.27,1.27,0,0,0,1.07-.64,27.42,27.42,0,0,0,1.5-5.09,32.49,32.49,0,0,0-1.75-15.71,33.37,33.37,0,0,0-5.82-10.84A36.64,36.64,0,0,0,66.57,726c-7.23-3.57-14.69-6.69-21.38-11.27a3.33,3.33,0,0,0-3.78.15,3.23,3.23,0,0,0-1.12,3.68c.33,1.06.69,2.12,1.05,3.17,2.58,7.7,5.2,15.4,7.75,23.11,2.26,6.8,4.43,13.62,6.67,20.42,2.51,7.61,5.06,15.22,7.59,22.83.41,1.25.8,2.52,1.23,3.9H63.32A21.17,21.17,0,0,0,46.57,800H74.23l-.08-.32C73.43,796.92,72.4,794.24,71.5,791.53Z"/><path class="cls-4" d="M429.42,337c-2.15.13-4.28.65-6.79,1-1-5.9-1.83-11.74-3-17.52a7.85,7.85,0,0,1,2.23-7.6c8.11-8.89,15.52-18.32,17.79-30.61a88.2,88.2,0,0,0,.32-32.75,66.15,66.15,0,0,0-5.7-17.7c-4.52-8.75-14-9-19.55-.75A38.23,38.23,0,0,0,409.51,243a118.32,118.32,0,0,0-1.06,52.55c.93,4.49-.1,6.82-3.63,9.47-15.28,11.46-26.31,26.07-31.16,44.8-6,23.06,7.59,47.11,29.63,52.9,7.65,2,15.37,1.69,23,.37,1.9,7.11,1.1,20-1.53,26.13a14.62,14.62,0,0,1-9.9,8.95c1.86-5.28,1.72-9.12-.52-13.44-2.37-4.58-6.42-6.56-11.34-6.55s-8.85,1.93-11,6.47c-3.65,7.63.52,17.86,8.63,20.2a31.71,31.71,0,0,0,11.66.82c13.76-1.4,21.59-9.18,22.74-22.53a90.42,90.42,0,0,0-.3-13.46c-.17-2.8-.76-5.58-1.17-8.38,1.86-.67,3.42-1.18,4.93-1.79,21.28-8.56,28.24-29.8,15.79-48.7C448.49,342,440.62,336.33,429.42,337Zm-8.08-84.7c1.1-1.74,3.26-3.72,5.08-3.89,2.73-.25,3.61,2.64,4.38,5,3.23,9.84,2.52,19.36-3,28.12-3.13,4.93-7.12,9.33-10.72,14l-1.2-.64C413.73,280.15,413,265.6,421.34,252.27ZM415.05,396a52.49,52.49,0,0,1-13.4-3c-15.08-5.74-21.41-18-17.6-33.7,2.39-9.84,7.06-18.36,15.06-24.9,4.65-3.81,9.05-7.92,14.05-12.32,1,5.69,1.89,10.75,2.91,15.79.38,1.9-.32,2.73-2,3.46a32.58,32.58,0,0,0-13.55,10.14c-6.3,8.36-6.49,20.37-.06,28.54,1.68,2.13,4.32,3.56,6.68,5.06a2.74,2.74,0,0,0,2.63-.53c.46-.56.23-1.84,0-2.74a3.84,3.84,0,0,0-1.18-1.94c-8.48-7.16-.8-24.09,10.23-26.27,2.3,13.59,4.6,27.17,7,41.37C421.92,395.41,418.42,396.36,415.05,396Zm16.68-4.51c-2.22-13-4.39-25.63-6.57-38.33,8.68-.29,16.9,5.65,18.95,13.35C446.58,375.79,441.56,386.26,431.73,391.51Z"/><path class="cls-4" d="M62,489.78c7.24-3.2,13.08-8.26,18.26-14.08,5.92,4.37,13.32,14.95,15.09,21.39a14.62,14.62,0,0,1-2.17,13.16c-1.83-5.28-4.33-8.2-8.77-10.18-4.71-2.1-9.12-1.13-13,1.94s-5.72,7-4.59,11.93c1.91,8.25,11.54,13.64,19.34,10.42a31.52,31.52,0,0,0,9.63-6.63c9.9-9.66,11.17-20.63,3.75-31.79a91.12,91.12,0,0,0-8.63-10.34c-1.88-2.08-4.07-3.88-6.14-5.82,1-1.68,1.94-3,2.74-4.47,11.31-20,3.51-40.91-18-47.93-10.06-3.28-19.75-2.82-28.1,4.67a67.85,67.85,0,0,0-4.66,5.05c-4.45-4-8.75-8.05-13.25-11.85a7.85,7.85,0,0,1-3-7.34c.8-12,.72-24-5.17-35A92.14,92.14,0,0,0,0,351.61v13.24a30.74,30.74,0,0,1,5.55,14.84c.63,5.82.26,11.74.33,17.61l-1.34.25Q2.22,395.38,0,393.13v10.3c2.84,2.65,3.32,5.05,2.29,9A98.69,98.69,0,0,0,0,424.05v22.72a76.06,76.06,0,0,0,5.85,20.1C15.56,488.64,41.15,499,62,489.78ZM71.33,436c7.71,5.7,10.31,17,5.89,27.25l-29-25.88C54.8,431.74,64.93,431.26,71.33,436Zm-55.21,2.93c1.26-5.87,2.15-11.83,3.31-18.39,4.35,3.8,8.18,7.23,12.11,10.54,1.48,1.25,1.46,2.33.59,3.95a32.57,32.57,0,0,0-4.27,16.38c.28,10.46,7.61,20,17.74,22.36,2.64.62,5.6.09,8.37-.21a2.75,2.75,0,0,0,1.73-2.05c0-.73-1-1.58-1.69-2.16a3.94,3.94,0,0,0-2.14-.79c-11.08-.3-15.63-18.33-8.36-26.91l31.26,28c-2.79,2.78-4.93,5.71-7.78,7.55a52.91,52.91,0,0,1-12.36,6c-15.37,4.91-28-.74-34.76-15.39C15.6,458.61,14,449,16.12,438.93Z"/><path class="cls-4" d="M794.19,347.08a65.57,65.57,0,0,0-15.49-10.29c-9-4-16.57,1.73-15.74,11.6A38.14,38.14,0,0,0,766.31,361a118.34,118.34,0,0,0,31.92,41.76,13.85,13.85,0,0,1,1.77,1.71V394.14c-9.31-9.22-17.13-19.38-18.69-33.3-.23-2,.23-4.93,1.55-6.2,2-1.9,4.47-.19,6.54,1.17A34.91,34.91,0,0,1,800,366.34V352.62A74.3,74.3,0,0,0,794.19,347.08Z"/><path class="cls-4" d="M800,452.14v-34A81.86,81.86,0,0,0,800,452.14Z"/><path class="cls-4" d="M229.68,122.14c9.44,1.23,21.13-4.71,20.62-17.66-.69-17.23-.17-34.52-.17-51.78v-4c-1.74,0-2.92,0-4.1,0-.74,0-1.47.11-2.7.21V98.38c-7.47-4.5-14.38-5.08-20.59-1.88a10.49,10.49,0,0,0-5.91,7.67C214.88,113.84,219.84,120.85,229.68,122.14Z"/><path class="cls-4" d="M541.59,586.69v-4c-1.73,0-2.91,0-4.1,0-.73,0-1.47.12-2.69.22v49.46c-7.47-4.51-14.38-5.08-20.59-1.89a10.54,10.54,0,0,0-5.92,7.67c-2,9.68,3,16.69,12.86,18,9.43,1.23,21.13-4.72,20.61-17.66C541.08,621.24,541.59,604,541.59,586.69Z"/><path class="cls-4" d="M763.89,753.74c-1.63-.59-2.74-1-3.86-1.39-.7-.24-1.42-.4-2.61-.73l-16.87,46.5c-5.49-6.78-11.78-9.68-18.71-8.8a10.55,10.55,0,0,0-8.18,5.2,18.78,18.78,0,0,0-2.3,5.48h35.7c4.8-14.28,10.32-28.33,15.46-42.5C763,756.33,763.37,755.15,763.89,753.74Z"/><path class="cls-4" d="M426.75,10.14a18.35,18.35,0,0,0,13,1.32,24.71,24.71,0,0,0,12.87-7.39,20.25,20.25,0,0,0,3-4.07H420.46A11.43,11.43,0,0,0,426.75,10.14Z"/><path class="cls-4" d="M719.61,15.8c8.45,4.38,21.47,2.77,25.4-9.57q1-3.12,2-6.23h-35.7C709.86,6.4,712.73,12.23,719.61,15.8Z"/><path class="cls-4" d="M760.64,623.1c-13-11.38-25.15-23.66-37.67-35.55l-2.89-2.75c-1.2,1.26-2,2.1-2.82,3-.5.54-.93,1.14-1.71,2.1l35.86,34.06c-8.41,2.32-13.58,6.93-15.54,13.63a10.52,10.52,0,0,0,1.48,9.57c5.68,8.08,14.18,9.31,21.89,3.07C766.63,644.22,770.37,631.64,760.64,623.1Z"/><path class="cls-4" d="M586.17,60.52a10.55,10.55,0,0,0,1.49,9.58c5.67,8.08,14.17,9.31,21.88,3.06,7.39-6,11.14-18.57,1.4-27.11C598,34.68,585.8,22.4,573.28,10.51l-2.9-2.76c-1.19,1.26-2,2.1-2.82,3-.49.54-.93,1.14-1.7,2.1L601.72,46.9C593.31,49.21,588.13,53.82,586.17,60.52Z"/><path class="cls-4" d="M90.92,576.81v-4c-1.74,0-2.92,0-4.1,0-.74,0-1.47.11-2.7.21v49.46c-7.47-4.5-14.38-5.08-20.59-1.88a10.49,10.49,0,0,0-5.91,7.67c-1.95,9.67,3,16.68,12.85,18,9.43,1.24,21.13-4.71,20.61-17.65C90.4,611.36,90.92,594.07,90.92,576.81Z"/><path class="cls-4" d="M128.49,201.12a28,28,0,0,0,16.91-5.85c7.79-5.86,11.94-13.37,10.17-23.49-.9-5.08-1.44-10.23-2.15-15.35-.83-6-1.64-12.09-2.49-18.13-1-7.18-2.06-14.35-3.07-21.53s-2-14.59-3-21.88c-.95-6.85-1.92-13.7-2.86-20.55a4.73,4.73,0,0,0-6.13-4.16c-5.7,1.81-11.37,3.7-17.05,5.56L92.34,84.4l-23,7.51Q58.52,95.47,47.67,99c-2,.66-3.62,2.63-3.37,4.59.64,5.09,1.33,10.17,2,15.25q1.52,10.83,3.06,21.65,1.18,8.46,2.36,16.91,1.17,8.28,2.35,16.56c.58,4.16,1.17,8.33,1.74,12.49.16,1.16.27,2.32.4,3.4-2.36-.31-4.6-.78-6.84-.86a27.34,27.34,0,0,0-14.53,3.7c-6.55,3.67-11.32,8.87-13.35,16.27a15.75,15.75,0,0,0,6.34,17.57c4.6,3.19,9.81,3.94,15.17,3.21a29,29,0,0,0,21.75-14,18.39,18.39,0,0,0,2.89-12c-1-7.78-2.18-15.54-3.27-23.31q-1.12-8.11-2.23-16.24-.85-6.18-1.7-12.34l79.39-24.38q2.34,16.85,4.68,33.71c-1.68-.33-3.12-.71-4.59-.87a27,27,0,0,0-14.86,2.6c-7.31,3.48-12.77,8.73-15.12,16.67-1.42,4.81-1,9.55,1.85,13.8C115.83,199.19,121.76,201.16,128.49,201.12Zm-69.79-62-1-7.09c-.35-2.54-.69-5.07-1-7.69l79.16-25.87c.77,5.48,1.52,10.94,2.29,16.41Z"/><path class="cls-4" d="M263.05,773.2a18.38,18.38,0,0,0-7-10.23c-6.43-4.5-13-8.82-19.47-13.23-4.52-3.07-9-6.17-13.54-9.25l-10.28-7L248,658.27l28.13,19.15c-1.37,1-2.62,1.84-3.73,2.82a27.12,27.12,0,0,0-8,12.76c-2.34,7.76-2.11,15.33,2.2,22.4,2.61,4.28,6.37,7.19,11.47,7.89,7,1,12.44-2.12,16.93-7.14a27.93,27.93,0,0,0,7-16.45c.89-9.71-1.89-17.83-10.58-23.31-4.37-2.75-8.55-5.8-12.82-8.72q-7.54-5.16-15.1-10.32c-6-4.07-12-8.11-18-12.19s-12.15-8.3-18.24-12.45q-8.57-5.85-17.15-11.67a4.72,4.72,0,0,0-7.19,1.75c-2.49,5.44-4.89,10.91-7.33,16.37q-5.67,12.71-11.35,25.43-4.92,11-9.85,22.06-4.65,10.43-9.31,20.86c-.88,2-.47,4.45,1.14,5.58,4.2,2.94,8.44,5.84,12.68,8.72,6,4.11,12.07,8.18,18.1,12.27l14.11,9.6,13.85,9.38,10.43,7.1c1,.66,1.91,1.35,2.79,2-1.82,1.54-3.67,2.88-5.23,4.49a27.44,27.44,0,0,0-7,13.25c-1.62,7.06-1.06,13.84,2.67,20.12h29.31c.33-.42.65-.85.95-1.29A28.92,28.92,0,0,0,263.05,773.2Zm-60.9-47-5.92-4-6.4-4.4q17-38.07,34-76l13.69,9.33Z"/><path class="cls-4" d="M492.49,228.72c2,5.23,5.82,8.82,10.63,11.28a29,29,0,0,0,25.85.89,18.36,18.36,0,0,0,9.23-8.25c3.64-6.95,7.07-14,10.61-21q3.69-7.32,7.42-14.62l5.62-11.11L641,211.09l-15.36,30.37c-1.19-1.22-2.16-2.36-3.27-3.33a27.17,27.17,0,0,0-13.7-6.33c-8-1.31-15.47-.11-21.92,5.08-3.92,3.15-6.31,7.26-6.34,12.4,0,7.07,3.71,12.07,9.26,15.86A28,28,0,0,0,606.89,270c9.74-.38,17.43-4.19,21.74-13.51,2.17-4.69,4.65-9.23,7-13.84q4.14-8.16,8.28-16.31c3.26-6.48,6.48-13,9.75-19.45s6.66-13.13,10-19.7L673,168.65a4.73,4.73,0,0,0-2.67-6.91c-5.71-1.75-11.45-3.43-17.17-5.14l-26.69-8-23.15-6.92c-7.3-2.18-14.6-4.34-21.89-6.53-2-.62-4.47.11-5.38,1.85-2.38,4.55-4.7,9.13-7,13.7q-4.92,9.76-9.82,19.54l-7.69,15.23c-2.51,5-5,10-7.51,15q-2.84,5.64-5.69,11.26c-.53,1-1.09,2.07-1.6,3-1.77-1.6-3.33-3.26-5.13-4.61a27.48,27.48,0,0,0-14.05-5.23c-7.48-.71-14.36.84-20.25,5.76A15.77,15.77,0,0,0,492.49,228.72ZM570.87,168c1.16-2.29,2.33-4.56,3.54-6.92L654.2,185l-7.47,14.78-79.08-25.32Z"/><path class="cls-4" d="M44.23,15.63c2.75,4.19,7,5.32,11.61,4.86a21.2,21.2,0,0,0,15.68-9.35c2.36-3.33,3.67-7,2.71-11.14H46.57a19.45,19.45,0,0,0-3.38,6.29A10.57,10.57,0,0,0,44.23,15.63Z"/><path class="cls-4" d="M246.27,7.8A20.27,20.27,0,0,0,257.87,0H228.56c.14.24.27.47.42.71A15.78,15.78,0,0,0,246.27,7.8Z"/></g></svg>